HIERARCHY
ROOT Hips
{
	OFFSET 0.00000 0.00000 0.00000
	CHANNELS 6 Xposition Yposition Zposition Yrotation Zrotation Xrotation 
	JOINT Lumbar
	{
		OFFSET 0 0 0
		CHANNELS 3 Zrotation Xrotation Yrotation
		JOINT Neck
		{
			OFFSET 0.00 0.2701 0.00
			CHANNELS 3 Zrotation Xrotation Yrotation
			End Site
			{
				OFFSET 0.00 0.1379 0.00
			}
		}
		JOINT RightShoulder
		{
			OFFSET 0.0119 0.2289 0.1181
			CHANNELS 3 Zrotation Xrotation Yrotation
			JOINT RightElbow
			{
				OFFSET 0.00 -0.1475 0.00
				CHANNELS 2 Zrotation Yrotation
				JOINT RightWrist
				{
					OFFSET 0.00 -0.1605 0.00
					CHANNELS 2 Zrotation Xrotation
					End Site
					{
						OFFSET 0.0040 -0.1068 0.0006
					}
				}
			}
		}
		JOINT LeftShoulder
		{
			OFFSET 0.0119 0.2289 -0.1181
			CHANNELS 3 Zrotation Xrotation Yrotation
			JOINT LeftElbow
			{
				OFFSET 0.00 -0.1475 0.00
				CHANNELS 2 Zrotation Yrotation
				JOINT LeftWrist
				{
					OFFSET 0.00 -0.1605 0.00
					CHANNELS 2 Zrotation Xrotation
					End Site
					{
						OFFSET 0.0040 -0.1068 -0.0006
					}
				}
			}
		}
	}
	JOINT RightHip
	{
		OFFSET 0.0316 -0.0424 0.0458
		CHANNELS 3 Zrotation Xrotation Yrotation
		JOINT RightKnee
		{
			OFFSET 0.00 -0.2438 0.00
			CHANNELS 1 Zrotation
			JOINT RightAnkle
			{
				OFFSET 0.00 -0.2449 0.00
				CHANNELS 3 Zrotation Xrotation Yrotation
				End Site
				{
					OFFSET 0.1237 -0.0542 0.0051
				}
			}
		}
	}
	JOINT LeftHip
	{
		OFFSET 0.0316 -0.0424 -0.0458
		CHANNELS 3 Zrotation Xrotation Yrotation
		JOINT LeftKnee
		{
			OFFSET 0.00 -0.2438 0.00
			CHANNELS 1 Zrotation
			JOINT LeftAnkle
			{
				OFFSET 0.00 -0.2449 0.00
				CHANNELS 3 Zrotation Xrotation Yrotation
				End Site
				{
					OFFSET 0.1237 -0.0542 -0.0051
				}
			}
		}
	}
}
MOTION
Frames: 22
Frame Time: 0.02
-0.00021 -0.00022 0.00014 33.4302 -31.67151 -7.69273 48.44805 2.76545 -3.72725 2.10854 -0.78967 -0.49909 -19.24299 -8.5844 -3.20385 35.42962 90.17223 4.44026 1.43444 -29.22871 6.59753 8.04794 49.65343 -100.19366 10.75532 -2.22523 46.56527 -3.01829 -10.57575 -18.88506 -7.13849 -0.32811 -2.40806 49.04884 4.37957 2.38804 -24.57744 -6.68672 1.59712 3.0251
-4e-05 -0.00019 0.00011 33.44761 -31.69352 -7.6866 48.44117 2.7613 -3.70297 2.26721 -0.80103 -0.50057 -18.70591 -8.8444 -2.98749 35.56871 90.12172 4.42127 1.43266 -28.2768 7.45701 6.33363 49.72507 -99.71101 10.44868 -2.19478 46.57826 -2.95268 -10.18455 -18.88225 -7.11646 -0.35761 -2.42523 49.05377 4.42267 2.58204 -24.57436 -6.68845 1.57753 3.01449
0.00012 -0.00017 8e-05 33.46504 -31.71552 -7.6805 48.43431 2.75717 -3.6788 2.42551 -0.81237 -0.50205 -18.17019 -9.10372 -2.77174 35.70745 90.07139 4.40237 1.43087 -27.3273 8.31283 4.62662 49.79654 -99.23 10.14302 -2.16444 46.59122 -2.88729 -9.79464 -18.87945 -7.0945 -0.38702 -2.44233 49.0587 4.4657 2.77573 -24.57129 -6.69018 1.55796 3.0039
0.00028 -0.00014 5e-05 33.48242 -31.73747 -7.67439 48.42745 2.75304 -3.65459 2.58372 -0.8237 -0.50353 -17.63469 -9.36294 -2.55603 35.84613 90.02104 4.38345 1.42909 -26.37819 9.16945 2.91798 49.86797 -98.74885 9.83733 -2.13409 46.60417 -2.82189 -9.40466 -18.87665 -7.07254 -0.41643 -2.45944 49.06361 4.50867 2.96917 -24.56822 -6.6919 1.53842 2.99332
0.00044 -0.00012 1e-05 33.49975 -31.75943 -7.66824 48.42058 2.74889 -3.63028 2.74223 -0.83504 -0.50501 -17.098 -9.62279 -2.33974 35.98511 89.9705 4.36444 1.42731 -25.427 10.03024 1.20112 49.93953 -98.26603 9.53064 -2.10361 46.61715 -2.75626 -9.01333 -18.87384 -7.05052 -0.44593 -2.47661 49.06851 4.55169 3.16285 -24.56514 -6.69361 1.51887 2.98273
0.0006 -0.0001 -2e-05 33.51739 -31.78149 -7.66222 48.41372 2.74479 -3.60641 2.90006 -0.84638 -0.50649 -16.56441 -9.88097 -2.12514 36.12334 89.9206 4.34576 1.42551 -24.48118 10.87563 -0.48523 50.01079 -97.78885 9.22717 -2.07357 46.63006 -2.69135 -8.62642 -18.87105 -7.02868 -0.47517 -2.4936 49.0735 4.59474 3.35657 -24.56209 -6.69536 1.49926 2.97213
0.00076 -7e-05 -5e-05 33.53442 -31.80333 -7.65596 48.40684 2.74061 -3.58166 3.05914 -0.85771 -0.50797 -16.02498 -10.14221 -1.90737 36.26293 89.86946 4.32643 1.42374 -23.52533 11.75069 -2.23049 50.08262 -97.30084 8.91757 -2.04268 46.64311 -2.62509 -8.23111 -18.86822 -7.00649 -0.50488 -2.51091 49.07831 4.63767 3.54991 -24.55898 -6.69704 1.47981 2.96157
0.00093 -5e-05 -8e-05 33.55196 -31.82537 -7.64992 48.40001 2.7365 -3.55773 3.21699 -0.86905 -0.50945 -15.49129 -10.40066 -1.69255 36.40128 89.81951 4.30772 1.42196 -22.57919 12.59908 -3.92255 50.15385 -96.82279 8.61359 -2.01258 46.65601 -2.56005 -7.84341 -18.86543 -6.98463 -0.53416 -2.52793 49.08326 4.68074 3.74372 -24.55592 -6.69879 1.4602 2.95097
0.00109 -2e-05 -0.00012 33.57031 -31.84766 -7.64416 48.39313 2.73245 -3.53476 3.37372 -0.88038 -0.51093 -14.96294 -10.65573 -1.4811 36.53815 89.77082 4.28968 1.42012 -21.6426 13.41229 -5.54548 50.22468 -96.35686 8.31647 -1.98341 46.66878 -2.49658 -7.46542 -18.86269 -6.96314 -0.5629 -2.54459 49.08852 4.72388 3.93776 -24.55294 -6.70062 1.4404 2.9403
0.00125 0 -0.00015 33.58456 -31.86855 -7.63684 48.38616 2.72798 -3.50613 3.53805 -0.89171 -0.5124 -14.39882 -10.93035 -1.24953 36.68363 89.71426 4.26752 1.41848 -20.64406 14.4202 -7.55384 50.29885 -95.82105 7.97985 -1.9488 46.68247 -2.42429 -7.03279 -18.85966 -6.93945 -0.59474 -2.56332 49.0924 4.76631 4.12949 -24.54957 -6.70195 1.42171 2.93
0.00141 2e-05 -0.00019 33.60711 -31.89235 -7.63275 48.37963 2.72445 -3.48953 3.6856 -0.90309 -0.5139 -13.91346 -11.16362 -1.06093 36.81085 89.67473 4.25422 1.4165 -19.78083 15.02229 -8.75699 50.36529 -95.43276 7.72663 -1.92572 46.69411 -2.37047 -6.71465 -18.85724 -6.92042 -0.62004 -2.57769 49.09893 4.81041 4.32668 -24.54697 -6.70436 1.40066 2.91892
0.00155 4e-05 -0.00025 33.65568 -31.92453 -7.63799 48.37246 2.72308 -3.50576 3.79258 -0.91427 -0.51548 -13.62024 -11.28315 -0.98821 36.88793 89.67876 4.26397 1.41312 -19.25664 14.45885 -7.66191 50.41555 -95.45335 7.70468 -1.93423 46.70095 -2.36898 -6.71992 -18.85666 -6.91428 -0.62733 -2.57993 49.11476 4.85793 4.53413 -24.54682 -6.70964 1.37313 2.90572
0.00169 5e-05 -0.00033 33.71197 -31.95949 -7.64638 48.36609 2.72271 -3.53419 3.8815 -0.92556 -0.51708 -13.41134 -11.3612 -0.95988 36.94634 89.7005 4.28281 1.40955 -18.87584 13.49756 -5.77409 50.45691 -95.62193 7.7665 -1.95436 46.7055 -2.38568 -6.83816 -18.85668 -6.9128 -0.62811 -2.57784 49.13277 4.90736 4.7479 -24.54737 -6.71603 1.34323 2.89174
0.00184 7e-05 -0.00041 33.76268 -31.99297 -7.65302 48.36052 2.72214 -3.55707 3.97538 -0.93702 -0.51865 -13.17852 -11.45837 -0.91141 37.01377 89.71613 4.29834 1.40633 -18.44856 12.75215 -4.30771 50.49935 -95.71931 7.78784 -1.96918 46.71069 -2.39307 -6.89905 -18.85633 -6.90917 -0.63186 -2.57782 49.1486 4.95667 4.96193 -24.54738 -6.722 1.3144 2.8781
0.00196 8e-05 -0.00047 33.82228 -32.02759 -7.66099 48.34995 2.72053 -3.57965 4.08378 -0.94756 -0.52027 -12.88184 -11.5543 -0.85925 37.08034 89.72343 4.31057 1.40181 -17.93642 11.85767 -2.584 50.55515 -95.83105 7.81764 -1.98402 46.71796 -2.40514 -6.98673 -18.85637 -6.90574 -0.63538 -2.57732 49.16988 5.00279 5.16292 -24.54834 -6.72766 1.28554 2.86452
0.00214 0.0001 -0.00056 33.86505 -32.06022 -7.66696 48.35012 2.72129 -3.60616 4.15661 -0.96003 -0.52182 -12.7422 -11.64299 -0.82988 37.14248 89.7525 4.33166 1.40018 -17.64287 11.17963 -1.2052 50.57993 -95.95121 7.85202 -2.00172 46.71988 -2.41145 -7.04389 -18.85576 -6.9029 -0.63804 -2.57686 49.17978 5.05602 5.39236 -24.54749 -6.73418 1.25622 2.85064
0.00248 0.00016 -0.00069 33.86073 -32.08903 -7.66649 48.37845 2.72842 -3.63703 4.14445 -0.97778 -0.52314 -12.9821 -11.7222 -0.81353 37.21218 89.83596 4.3765 1.40477 -17.85129 11.19638 -1.00364 50.5306 -96.02964 7.85803 -2.02332 46.71156 -2.39997 -7.00136 -18.85318 -6.90145 -0.63825 -2.577 49.16222 5.12832 5.69988 -24.54147 -6.74304 1.22616 2.83593
0.00288 0.00022 -0.00085 33.839 -32.11522 -7.66396 48.41776 2.73788 -3.67198 4.09536 -0.99743 -0.52441 -13.38409 -11.79567 -0.82618 37.27512 89.9413 4.42976 1.41266 -18.28774 11.44494 -1.17143 50.44866 -96.11646 7.86947 -2.04755 46.69709 -2.38154 -6.92171 -18.84996 -6.90024 -0.63814 -2.57746 49.13218 5.20766 6.03516 -24.53362 -6.75265 1.19583 2.82102
0.00326 0.00029 -0.001 33.82439 -32.14115 -7.66247 48.45291 2.74621 -3.70753 4.05753 -1.01629 -0.52576 -13.73287 -11.87132 -0.85076 37.33134 90.03712 4.478 1.42019 -18.66259 11.58758 -1.14972 50.37543 -96.21867 7.89199 -2.07143 46.68299 -2.36465 -6.85122 -18.84707 -6.89834 -0.63927 -2.57816 49.10504 5.28397 6.35757 -24.52661 -6.76181 1.16555 2.8063
0.00361 0.00035 -0.00113 33.81331 -32.17364 -7.66059 48.4847 2.75487 -3.73361 4.04283 -1.03503 -0.52688 -13.99528 -11.9466 -0.76957 37.42876 90.13045 4.53114 1.42273 -18.86247 11.71847 -1.19024 50.3275 -96.24624 7.86062 -2.09243 46.67952 -2.35539 -6.81797 -18.84401 -6.89912 -0.63555 -2.57703 49.09015 5.35996 6.68307 -24.51958 -6.77162 1.13512 2.79102
0.00404 0.00042 -0.00131 33.79073 -32.19142 -7.65904 48.52592 2.76335 -3.77965 3.97087 -1.0542 -0.52847 -14.47872 -12.02271 -0.91663 37.43837 90.23559 4.57653 1.43667 -19.48227 11.93438 -1.20102 50.21949 -96.42774 7.94122 -2.11954 46.65188 -2.32813 -6.69594 -18.84118 -6.89426 -0.64197 -2.57988 49.04615 5.43783 7.0064 -24.51214 -6.78007 1.10542 2.77699
0.00468 0.0005 -0.00164 33.73998 -32.17235 -7.65843 48.59171 2.77101 -3.8848 3.75494 -1.07651 -0.5313 -15.50002 -12.09653 -1.66987 37.21303 90.36294 4.59774 1.48027 -21.17563 12.33071 -1.03275 49.95131 -97.04554 8.33476 -2.16564 46.56391 -2.25491 -6.34675 -18.83888 -6.87417 -0.676 -2.59328 48.92982 5.52279 7.3365 -24.50401 -6.78619 1.07386 2.76537
